LG_Sit_Stand_Walk08																		
version=1																		
nRows=72																		
nColumns=19																		
inDegrees=yes																		
endheader																		
time	ground_force2_vx	ground_force2_vy	ground_force2_vz	ground_force2_px	ground_force2_py	ground_force2_pz	ground_torque2_x	ground_torque2_y	ground_torque2_z	ground_force1_vx	ground_force1_vy	ground_force1_vz	ground_force1_px	ground_force1_py	ground_force1_pz	ground_torque1_x	ground_torque1_y	ground_torque1_z
4.652	0	0	0	0.2	0	-0.3	0	0	0	28.754757	643.630798	35.177437	-0.109638	0	0.370283	-1.80E-05	0.486953	0.00E+00
4.653	0	0	0	0.2	0	-0.3	0	0	0	28.833328	643.630798	35.882774	-0.110031	0	0.370283	-1.20E-05	0.486953	-4.00E-06
4.654	0	0	0	0.2	0	-0.3	0	0	0	28.833328	644.998901	35.882774	-0.110031	0	0.371159	-1.20E-05	0.5133	-4.00E-06
4.655	0	0	0	0.2	0	-0.3	0	0	0	28.754757	646.053833	35.726189	-0.1098	0	0.371159	-1.10E-05	0.5133	-4.00E-06
4.656	0	0	0	0.2	0	-0.3	0	0	0	28.2826	644.998901	35.726189	-0.1098	0	0.371192	-1.10E-05	0.395131	-2.00E-06
4.657	0	0	0	0.2	0	-0.3	0	0	0	28.2826	643.643066	35.804482	-0.1098	0	0.371192	-1.60E-05	0.395131	-4.00E-06
4.658	0	0	0	0.2	0	-0.3	0	0	0	28.671133	643.643066	35.804684	-0.110314	0	0.371192	-1.60E-05	0.39775	-2.00E-06
4.659	0	0	0	0.2	0	-0.3	0	0	0	28.75115	646.592285	36.039673	-0.110915	0	0.371094	-1.40E-05	0.401401	-2.00E-06
4.66	0	0	0	0.2	0	-0.3	0	0	0	29.296827	646.592285	36.353279	-0.110915	0	0.371094	-1.20E-05	0.456035	-2.00E-06
4.661	0	0	0	0.2	0	-0.3	0	0	0	29.296827	646.401733	36.74485	-0.110759	0	0.371817	-8.00E-06	0.456035	-2.00E-06
4.662	0	0	0	0.2	0	-0.3	0	0	0	28.512545	645.904114	36.901711	-0.110759	0	0.371817	-8.00E-06	0.353482	-3.00E-06
4.663	0	0	0	0.2	0	-0.3	0	0	0	28.512545	645.904114	36.901711	-0.110865	0	0.371232	-3.00E-06	0.353482	-2.00E-06
4.664	0	0	0	0.2	0	-0.3	0	0	0	28.826115	645.904114	36.901711	-0.110865	0	0.371232	-1.60E-05	0.448437	0
4.665	0	0	0	0.2	0	-0.3	0	0	0	28.826115	644.354614	37.136864	-0.111035	0	0.371833	-1.50E-05	0.448437	0.00E+00
4.666	0	0	0	0.2	0	-0.3	0	0	0	29.531822	644.354614	38.782127	-0.111008	0	0.372419	-1.50E-05	0.358496	-3.00E-06
4.667	0	0	0	0.2	0	-0.3	0	0	0	28.823227	644.688354	38.782127	-0.111008	0	0.372419	-8.00E-06	0.305466	-3.00E-06
4.668	0	0	0	0.2	0	-0.3	0	0	0	28.822504	644.688354	38.782207	-0.111008	0	0.371885	-8.00E-06	0.358496	-3.00E-06
4.669	0	0	0	0.2	0	-0.3	0	0	0	28.822504	644.688354	38.938869	-0.111123	0	0.371885	-1.50E-05	0.349504	-3.00E-06
4.67	0	0	0	0.2	0	-0.3	0	0	0	28.97965	646.591125	39.565754	-0.111136	0	0.372188	-1.70E-05	0.398103	-4.00E-06
4.671	0	0	0	0.2	0	-0.3	0	0	0	28.97965	646.761597	40.035736	-0.111237	0	0.372188	-1.50E-05	0.388265	-4.00E-06
4.672	0	0	0	0.2	0	-0.3	0	0	0	28.982538	646.761597	40.662743	-0.111388	0	0.372792	-1.70E-05	0.416032	-2.00E-06
4.673	0	0	0	0.2	0	-0.3	0	0	0	29.451086	644.353821	41.837822	-0.111388	0	0.372861	-1.70E-05	0.388265	-1.00E-06
4.674	0	0	0	0.2	0	-0.3	0	0	0	29.451086	644.013672	41.838142	-0.111388	0	0.373114	-1.70E-05	0.416032	0.00E+00
4.675	0	0	0	0.2	0	-0.3	0	0	0	28.278271	644.013672	41.838142	-0.11119	0	0.373114	-1.10E-05	0.410995	0
4.676	0	0	0	0.2	0	-0.3	0	0	0	28.278271	647.806519	41.838142	-0.111411	0	0.372934	-1.10E-05	0.410995	-1.00E-06
4.677	0	0	0	0.2	0	-0.3	0	0	0	29.058945	648.308716	43.013222	-0.111541	0	0.372934	-1.10E-05	0.398673	-1.00E-06
4.678	0	0	0	0.2	0	-0.3	0	0	0	29.058945	648.308716	43.091553	-0.111631	0	0.373382	-1.10E-05	0.360831	-1.00E-06
4.679	0	0	0	0.2	0	-0.3	0	0	0	29.370348	648.308716	43.248253	-0.111675	0	0.373382	-1.00E-06	0.281641	-2.00E-06
4.68	0	0	0	0.2	0	-0.3	0	0	0	29.056059	647.964172	43.248253	-0.11181	0	0.373235	-1.00E-06	0.280413	-2.00E-06
4.681	0	0	0	0.2	0	-0.3	0	0	0	29.212481	647.12561	43.248253	-0.111907	0	0.373069	-7.00E-06	0.281641	-2.00E-06
4.682	0	0	0	0.2	0	-0.3	0	0	0	29.21176	647.12561	43.640152	-0.111959	0	0.373053	-1.50E-05	0.331602	-3.00E-06
4.683	0	0	0	0.2	0	-0.3	0	0	0	29.212481	653.66095	43.640232	-0.112218	0	0.373069	-1.10E-05	0.3773	-3.00E-06
4.684	0	0	0	0.2	0	-0.3	0	0	0	29.523886	653.66095	43.64027	-0.112224	0	0.373183	-1.20E-05	0.3773	-3.00E-06
4.685	0	0	0	0.2	0	-0.3	0	0	0	29.836012	647.981201	44.345444	-0.112224	0	0.373626	-1.20E-05	0.3773	-3.00E-06
4.686	0	0	0	0.2	0	-0.3	0	0	0	29.837454	647.981201	45.050461	-0.112251	0	0.374023	-1.40E-05	0.315143	-3.00E-06
4.687	0	0	0	0.2	0	-0.3	0	0	0	29.836012	648.332581	45.128956	-0.112251	0	0.37377	-1.40E-05	0.301252	-3.00E-06
4.688	0	0	0	0.2	0	-0.3	0	0	0	29.987383	649.018005	45.599014	-0.112251	0	0.37377	-1.30E-05	0.290734	-2.00E-06
4.689	0	0	0	0.2	0	-0.3	0	0	0	29.987383	649.894714	45.59906	-0.112536	0	0.37377	-8.00E-06	0.260515	-2.00E-06
4.69	0	0	0	0.2	0	-0.3	0	0	0	30.613077	649.894714	45.990711	-0.112536	0	0.374128	-8.00E-06	0.260515	-1.00E-06
4.691	0	0	0	0.2	0	-0.3	0	0	0	30.613077	649.189636	46.617756	-0.112536	0	0.374128	-8.00E-06	0.260515	-3.00E-06
4.692	0	0	0	0.2	0	-0.3	0	0	0	30.460262	648.849365	46.695923	-0.112283	0	0.374344	-8.00E-06	0.26195	-3.00E-06
4.693	0	0	0	0.2	0	-0.3	0	0	0	30.460262	648.162415	47.949696	-0.112551	0	0.374688	-1.00E-05	0.31516	-3.00E-06
4.694	0	0	0	0.2	0	-0.3	0	0	0	30.460262	648.162415	47.949696	-0.112783	0	0.374688	-1.00E-05	0.31516	-2.00E-06
4.695	0	0	0	0.2	0	-0.3	0	0	0	30.0674	651.965637	48.262939	-0.11282	0	0.374688	-2.60E-05	0.230795	-2.00E-06
4.696	0	0	0	0.2	0	-0.3	0	0	0	30.0674	651.965637	48.262939	-0.11282	0	0.37486	-2.60E-05	0.212817	0.00E+00
4.697	0	0	0	0.2	0	-0.3	0	0	0	30.0674	651.934021	48.889866	-0.11282	0	0.37486	-2.40E-05	0.162845	-3.00E-06
4.698	0	0	0	0.2	0	-0.3	0	0	0	29.753111	649.558777	49.125057	-0.112855	0	0.374288	-2.10E-05	0.162845	-4.00E-06
4.699	0	0	0	0.2	0	-0.3	0	0	0	29.753111	649.558777	49.516712	-0.112909	0	0.374288	-2.00E-05	0.180382	-4.00E-06
4.7	0	0	0	0.2	0	-0.3	0	0	0	30.140921	651.434082	50.53529	-0.112954	0	0.374854	-1.60E-05	0.180382	-3.00E-06
4.701	0	0	0	0.2	0	-0.3	0	0	0	30.218771	651.437561	50.84877	-0.112959	0	0.375045	-7.00E-06	0.129696	-3.00E-06
4.702	0	0	0	0.2	0	-0.3	0	0	0	30.140921	651.437561	50.84877	-0.112959	0	0.37518	-6.00E-06	0.129696	-3.00E-06
4.703	0	0	0	0.2	0	-0.3	0	0	0	30.217329	650.764465	50.927025	-0.112959	0	0.37518	-7.00E-06	0.068806	-3.00E-06
4.704	0	0	0	0.2	0	-0.3	0	0	0	30.217329	649.864868	51.318878	-0.113001	0	0.375142	-6.00E-06	0.128114	-3.00E-06
4.705	0	0	0	0.2	0	-0.3	0	0	0	30.219494	650.764465	51.553909	-0.113257	0	0.374756	-1.20E-05	0.128114	-3.00E-06
4.706	0	0	0	0.2	0	-0.3	0	0	0	30.610914	651.80365	52.65078	-0.113001	0	0.375142	-3.00E-06	0.128114	1.00E-06
4.707	0	0	0	0.2	0	-0.3	0	0	0	30.687323	652.996582	52.807598	-0.113416	0	0.375653	-3.00E-06	0.139032	1.00E-06
4.708	0	0	0	0.2	0	-0.3	0	0	0	30.687323	652.996582	53.591225	-0.113074	0	0.375653	-3.00E-06	0.191505	-1.00E-06
4.709	0	0	0	0.2	0	-0.3	0	0	0	30.612356	652.13385	53.826298	-0.113416	0	0.375642	-7.00E-06	0.191505	-2.00E-06
4.71	0	0	0	0.2	0	-0.3	0	0	0	30.451605	651.620789	53.904469	-0.113324	0	0.375503	-9.00E-06	0.137797	-2.00E-06
4.711	0	0	0	0.2	0	-0.3	0	0	0	30.296623	651.620789	54.766384	-0.113421	0	0.375503	-7.00E-06	0.107777	-2.00E-06
4.712	0	0	0	0.2	0	-0.3	0	0	0	30.296623	653.869568	54.923286	-0.113552	0	0.375503	-1.20E-05	0.107777	-2.00E-06
4.713	0	0	0	0.2	0	-0.3	0	0	0	32.013672	653.869568	55.941788	-0.113552	0	0.376168	-1.50E-05	0.206957	-3.00E-06
4.714	0	0	0	0.2	0	-0.3	0	0	0	32.013672	650.585083	56.020195	-0.113552	0	0.376448	-1.50E-05	0.206957	-3.00E-06
4.715	0	0	0	0.2	0	-0.3	0	0	0	30.763006	650.585083	56.020195	-0.113753	0	0.376448	-1.80E-05	0.142234	-4.00E-06
4.716	0	0	0	0.2	0	-0.3	0	0	0	30.763006	654.030334	56.020195	-0.113753	0	0.376198	-2.20E-05	0.112201	-1.00E-06
4.717	0	0	0	0.2	0	-0.3	0	0	0	30.917988	654.030334	57.195641	-0.113891	0	0.375949	-2.20E-05	0.112201	-4.00E-06
4.718	0	0	0	0.2	0	-0.3	0	0	0	31.309406	653.355286	57.273727	-0.113843	0	0.375949	-1.10E-05	0.15857	-3.00E-06
4.719	0	0	0	0.2	0	-0.3	0	0	0	31.309406	652.679138	57.58733	-0.113843	0	0.376051	-1.10E-05	0.15857	-3.00E-06
4.72	0	0	0	0.2	0	-0.3	0	0	0	31.309406	652.660278	57.822205	-0.113803	0	0.376341	-1.20E-05	0.022707	-1.00E-06
4.721	0	0	0	0.2	0	-0.3	0	0	0	31.227226	651.471436	57.979065	-0.113773	0	0.376341	-1.60E-05	0.022707	-1.00E-06
4.722	0	0	0	0.2	0	-0.3	0	0	0	31.150818	651.471436	58.68428	-0.113773	0	0.375971	-1.20E-05	-0.045065	-2.00E-06
4.723	0	0	0	0.2	0	-0.3	0	0	0	31.072245	654.564209	58.68428	-0.113795	0	0.375874	-1.60E-05	0.03429	-2.00E-06
